<svg version="1.1" id="cdlAudioHelpIcon" xmlns="http://www.w3.org/2000/svg" xmlns:xlink="http://www.w3.org/1999/xlink" x="0px" y="0px"
	 viewBox="89.5 299 42.2 39.4" enable-background="new 89.5 299 42.2 39.4" xml:space="preserve" width="###ICON_SIZE###px" height="###ICON_SIZE###px" fill="####F_COLOR###" style="width:###ICON_SIZE###px !important;height:###ICON_SIZE###px !important">
<polygon points="91.5,313.3 91.5,324.3 98.6,324.3 107.5,333.4 107.5,304.2 98.6,313.4 91.5,313.4 "></polygon>
<path d="M118.9,303c5.4,0,10.8,2.5,10.8,8.5c0,5.5-6.3,7.6-7.7,9.6c-1,1.5-0.7,3.6-3.5,3.6c-1.8,0-2.7-1.5-2.7-2.8
	c0-5,7.4-6.2,7.4-10.3c0-2.3-1.5-3.6-4.1-3.6c-5.4,0-3.3,5.6-7.4,5.6c-1.5,0-2.8-0.9-2.8-2.6C109,306.7,113.8,303,118.9,303z
	 M118.7,327.4c1.9,0,3.5,1.6,3.5,3.5c0,1.9-1.6,3.5-3.5,3.5c-1.9,0-3.5-1.6-3.5-3.5C115.2,329,116.8,327.4,118.7,327.4z"></path>
</svg>
