<svg version="1.1" id="cdlAudioHelpIcon" xmlns="http://www.w3.org/2000/svg" xmlns:xlink="http://www.w3.org/1999/xlink" x="0px" y="0px"
	 viewBox="148.1 211.8 42 42" enable-background="new 148.1 211.8 42 42" xml:space="preserve" width="###ICON_SIZE###px" height="###ICON_SIZE###px" fill="####F_COLOR###" style="width:###ICON_SIZE###px !important;height:###ICON_SIZE###px !important">
<g>
	<path d="M156.6,220.3c-4.6,4.6-4.6,12.2,0,16.8c4,4,10.1,4.6,14.6,1.8l9.1,9.1c1.1,1.1,2.8,1.1,4,0c1.1-1.1,1.1-2.8,0-4l-9.1-9.1
		c2.8-4.6,2.2-10.7-1.8-14.6C168.8,215.7,161.3,215.7,156.6,220.3z M170.7,234.5c-3.1,3.1-8.3,3.1-11.4,0c-3.1-3.1-3.1-8.3,0-11.4
		c3.1-3.1,8.3-3.1,11.4,0C173.9,226.2,173.9,231.3,170.7,234.5z"/>
	<path d="M156.6,220.3L156.6,220.3l2.7,2.7l0,0c3.1-3.1,8.3-3.2,11.4,0c3.1,3.1,3.1,8.3,0,11.4l0,0l13.6,13.6c1.1-1.1,1.1-2.8,0-4
		l-9.1-9.1c2.8-4.6,2.2-10.7-1.8-14.6C168.8,215.7,161.3,215.7,156.6,220.3z"/>
</g>
</svg>
