<svg version="1.1" id="cdlDisplayIcon" xmlns="http://www.w3.org/2000/svg" xmlns:xlink="http://www.w3.org/1999/xlink" x="0px" y="0px"
	 viewBox="0 0 116.2 146.3" style="enable-background:new 0 0 116.2 146.3;text-decoration:none" xml:space="preserve" width="###ICON_SIZE###px" height="###ICON_SIZE###px" fill="####F_COLOR###" style="width:###ICON_SIZE###px !important;height:###ICON_SIZE###px !important">
	<style type="text/css">
		.st1{font-size:143.1113px;text-decoration:none !important;font-weight:bold}
	</style>
	<image src="###EMBEDDED_URL###/design/images/util_links_pictos/display_picto_###F_SIZE###.png" alt="Personnaliser vos paramètres d'affichage" xlink:href=""></image>
	<text transform="matrix(0.9454 0 0 1 -1 123.5796)" class="st0 st1">A</text>
	<g>
		<path d="M88.7,36.4c0,6.7,6.1,12.2,13.7,12.2c7.6,0,13.7-5.5,13.7-12.2c0-8.7-10.7-14.1-11.5-23.8v-0.3c0-1.1-1-1.9-2.1-1.9
			c-1.2,0-2.1,1-2.1,1.9v0.3C99.4,22.3,88.7,27.7,88.7,36.4z M104.3,41.4c2-0.3,3.5-1.9,4-3.5c0.2-0.8,0.8-1.3,1.8-1.3
			s1.8,0.6,1.8,1.6c0,1.1-1.2,2.9-2.5,4.2c-1.5,1.3-3.1,2.2-4.6,2.2c-1,0-1.8-0.8-1.8-1.6C102.8,42.2,103.5,41.6,104.3,41.4z"/>
	</g>
</svg>
